<?xml version="1.0" encoding="UTF-8" standalone="no" ?>
<!DOCTYPE svg PUBLIC "-//W3C//DTD SVG 1.1//EN" "http://www.w3.org/Graphics/SVG/1.1/DTD/svg11.dtd">
<svg xmlns="http://www.w3.org/2000/svg" xmlns:xlink="http://www.w3.org/1999/xlink" version="1.1" width="1080" height="1080" viewBox="0 0 1080 1080" xml:space="preserve">
<desc>Created with Fabric.js 5.2.4</desc>
<defs>
</defs>
<g transform="matrix(1 0 0 1 540 540)" id="799f80dd-63d4-4c92-9c7c-0777ae4f95b3"  >
<rect style="stroke: none; stroke-width: 1; stroke-dasharray: none; stroke-linecap: butt; stroke-dashoffset: 0; stroke-linejoin: miter; stroke-miterlimit: 4; fill: rgb(255,255,255); fill-rule: nonzero; opacity: 1; visibility: hidden;" vector-effect="non-scaling-stroke"  x="-540" y="-540" rx="0" ry="0" width="1080" height="1080" />
</g>
<g transform="matrix(1 0 0 1 540 540)" id="c22dd281-7ba4-487b-b151-3d1bbac10dad"  >
</g>
<g transform="matrix(2.3 0 0 2.3 540.07 540.07)"  >
<g style="" vector-effect="non-scaling-stroke"   >
		<g transform="matrix(1 0 0 1 -123.11 -0.02)"  >
<path style="stroke: none; stroke-width: 1; stroke-dasharray: none; stroke-linecap: butt; stroke-dashoffset: 0; stroke-linejoin: miter; stroke-miterlimit: 4; fill: rgb(21,37,83); fill-rule: nonzero; opacity: 1;" vector-effect="non-scaling-stroke"  transform=" translate(-416.89, -539.98)" d="M 495.58 584.42 C 475.43 564.29 447.62 551.8299999999999 416.89 551.8299999999999 L 364.02 551.8299999999999 L 364.02 305.5999999999999 L 305.61 305.5999999999999 L 305.61 663.1099999999999 C 305.61 663.8599999999999 305.62 664.6199999999999 305.64 665.3699999999999 C 305.64 665.9199999999998 305.65 666.4799999999999 305.68 667.0299999999999 C 305.69 667.6399999999999 305.72 668.2299999999999 305.75 668.8299999999998 C 305.78 669.5499999999998 305.82 670.2599999999998 305.88 670.9699999999998 L 305.88 671.0399999999998 C 305.90999999999997 671.4699999999998 305.94 671.8999999999999 305.98 672.3299999999998 C 306.04 673.0499999999998 306.1 673.7599999999998 306.17 674.4699999999998 C 306.24 675.2399999999998 306.33000000000004 676.0099999999998 306.42 676.7599999999998 C 306.46000000000004 677.0999999999998 306.51 677.4399999999997 306.55 677.7799999999997 C 306.65000000000003 678.5299999999997 306.76 679.2899999999997 306.88 680.0399999999997 C 306.95 680.5899999999997 307.04 681.1499999999997 307.15 681.6999999999997 C 307.19 681.9699999999997 307.23999999999995 682.2199999999997 307.28 682.4699999999997 C 307.34999999999997 682.8799999999997 307.40999999999997 683.2799999999996 307.5 683.6799999999997 C 307.6 684.2599999999998 307.71 684.8199999999997 307.83 685.3799999999998 C 308.03999999999996 686.3699999999998 308.24 687.3599999999998 308.47999999999996 688.3399999999998 C 308.66999999999996 689.1999999999998 308.87999999999994 690.0599999999998 309.09999999999997 690.8999999999997 C 309.28999999999996 691.6699999999997 309.49999999999994 692.4399999999997 309.71999999999997 693.2099999999997 C 310.02 694.2899999999997 310.34 695.3499999999997 310.66999999999996 696.4199999999997 C 310.85999999999996 697.0399999999997 311.06999999999994 697.6599999999997 311.28 698.2699999999998 C 311.55999999999995 699.1099999999998 311.84 699.9399999999997 312.14 700.7699999999998 C 312.32 701.2599999999998 312.49 701.7299999999998 312.66999999999996 702.1999999999997 C 315.12999999999994 708.7399999999997 318.16999999999996 714.9899999999997 321.77 720.8799999999997 C 322.34999999999997 721.8099999999996 322.91999999999996 722.7399999999997 323.53 723.6599999999996 C 323.98999999999995 724.3799999999997 324.46 725.1099999999997 324.96 725.8199999999996 C 325.33 726.3799999999995 325.72999999999996 726.9399999999996 326.13 727.5099999999996 C 326.75 728.3799999999997 327.39 729.2599999999996 328.05 730.1299999999997 C 328.73 731.0299999999996 329.43 731.9299999999996 330.14 732.8099999999996 C 330.21 732.8999999999996 330.27 732.9899999999996 330.34999999999997 733.0799999999996 C 331.83 734.9099999999996 333.36999999999995 736.6999999999996 334.97999999999996 738.4299999999996 C 335.04999999999995 738.4999999999997 335.12999999999994 738.5899999999996 335.21999999999997 738.6799999999996 C 335.98999999999995 739.5199999999996 336.78999999999996 740.3499999999996 337.59999999999997 741.1799999999996 C 338.40999999999997 742.0099999999996 339.23999999999995 742.8399999999996 340.09999999999997 743.6499999999996 C 340.12999999999994 743.6799999999996 340.16999999999996 743.7099999999996 340.21999999999997 743.7499999999997 C 341.10999999999996 744.5899999999997 342.01 745.4199999999996 342.92999999999995 746.2399999999997 C 343.67999999999995 746.9199999999996 344.44999999999993 747.5899999999997 345.23999999999995 748.2399999999997 C 346.44999999999993 749.2599999999996 347.69999999999993 750.2699999999996 348.94999999999993 751.2399999999997 C 349.68999999999994 751.8199999999997 350.43999999999994 752.3799999999997 351.2099999999999 752.9399999999997 C 351.3999999999999 753.0699999999997 351.5899999999999 753.2199999999997 351.7999999999999 753.3499999999997 C 352.57999999999987 753.9299999999997 353.3799999999999 754.4899999999997 354.1999999999999 755.0399999999997 C 354.3599999999999 755.1599999999997 354.5099999999999 755.2599999999998 354.6699999999999 755.3699999999998 C 355.5699999999999 755.9899999999998 356.4899999999999 756.5799999999998 357.4199999999999 757.1699999999997 C 357.5999999999999 757.2699999999998 357.7699999999999 757.3899999999998 357.9499999999999 757.4999999999998 C 358.8799999999999 758.0899999999998 359.82999999999987 758.6699999999997 360.78999999999985 759.2199999999998 C 361.79999999999984 759.8099999999998 362.79999999999984 760.3899999999998 363.83999999999986 760.9499999999998 L 364.01999999999987 761.0399999999998 C 366.95999999999987 762.6399999999999 369.9999999999999 764.0999999999998 373.09999999999985 765.4299999999998 C 374.08999999999986 765.8599999999998 375.07999999999987 766.2599999999999 376.0699999999999 766.6599999999999 C 377.15999999999985 767.0899999999998 378.26999999999987 767.4999999999999 379.39999999999986 767.8999999999999 C 380.45999999999987 768.2799999999999 381.52999999999986 768.6499999999999 382.60999999999984 768.9899999999999 C 383.49999999999983 769.2899999999998 384.3799999999998 769.5499999999998 385.26999999999987 769.8199999999999 C 386.27999999999986 770.1199999999999 387.27999999999986 770.41 388.29999999999984 770.66 C 388.70999999999987 770.78 389.1299999999998 770.88 389.53999999999985 770.99 C 390.30999999999983 771.2 391.08999999999986 771.39 391.8799999999998 771.55 C 391.8799999999998 771.55 391.8899999999998 771.56 391.9099999999998 771.55 C 392.5199999999998 771.7099999999999 393.1499999999998 771.8499999999999 393.7699999999998 771.9599999999999 C 394.2099999999998 772.06 394.6699999999998 772.15 395.11999999999983 772.2399999999999 C 395.54999999999984 772.3299999999999 395.9599999999998 772.4199999999998 396.40999999999985 772.4899999999999 C 397.55999999999983 772.7099999999999 398.71999999999986 772.8999999999999 399.8899999999999 773.0799999999999 C 400.83999999999986 773.2299999999999 401.7999999999999 773.3599999999999 402.7599999999999 773.4799999999999 C 403.89999999999986 773.6299999999999 405.01999999999987 773.7499999999999 406.1799999999999 773.8499999999999 C 407.1899999999999 773.9499999999999 408.1899999999999 774.04 409.20999999999987 774.0999999999999 C 409.54999999999984 774.1299999999999 409.8899999999999 774.1399999999999 410.22999999999985 774.1599999999999 C 410.34999999999985 774.1699999999998 410.46999999999986 774.1899999999998 410.57999999999987 774.1899999999998 C 411.47999999999985 774.2499999999998 412.39999999999986 774.2799999999999 413.2999999999999 774.3099999999998 C 414.4999999999999 774.3499999999998 415.6799999999999 774.3699999999998 416.8799999999999 774.3699999999998 C 431.2899999999999 774.3699999999998 445.0599999999999 771.6299999999998 457.6799999999999 766.6499999999997 C 458.6899999999999 766.2499999999998 459.6799999999999 765.8499999999998 460.6699999999999 765.4199999999997 C 460.7999999999999 765.3599999999998 460.9399999999999 765.3199999999997 461.0499999999999 765.2599999999998 C 461.9699999999999 764.8599999999998 462.8699999999999 764.4599999999998 463.7599999999999 764.0499999999997 C 464.4999999999999 763.7099999999997 465.21999999999986 763.3499999999997 465.9299999999999 762.9999999999998 C 466.3899999999999 762.7799999999997 466.82999999999987 762.5599999999997 467.2899999999999 762.3199999999998 C 468.9799999999999 761.4799999999998 470.6299999999999 760.5699999999998 472.25999999999993 759.6299999999998 C 472.7899999999999 759.3299999999998 473.30999999999995 759.0399999999997 473.80999999999995 758.7299999999998 C 474.44999999999993 758.3599999999998 475.09999999999997 757.9599999999998 475.71999999999997 757.5599999999998 C 476.35999999999996 757.1799999999998 476.97999999999996 756.7799999999999 477.59999999999997 756.3599999999998 C 478.09999999999997 756.0299999999997 478.60999999999996 755.7099999999998 479.09 755.3699999999998 C 480.64 754.3299999999998 482.15 753.2499999999998 483.63 752.1299999999998 C 484.19 751.7199999999998 484.75 751.2899999999997 485.32 750.8399999999998 C 488.90999999999997 748.0399999999998 492.34999999999997 745.0099999999998 495.57 741.7899999999998 C 500.33 737.0299999999999 504.67 731.8199999999998 508.5 726.2599999999999 C 509.11 725.3999999999999 509.68 724.5299999999999 510.26 723.6399999999999 C 510.87 722.7199999999999 511.44 721.7899999999998 512.02 720.8399999999999 C 512.79 719.5799999999999 513.53 718.31 514.24 717.0199999999999 C 514.77 716.0599999999998 515.3 715.0799999999998 515.8100000000001 714.0899999999999 C 516.48 712.8199999999999 517.1 711.55 517.7 710.2399999999999 C 518.11 709.3699999999999 518.5 708.4899999999999 518.88 707.6199999999999 C 518.97 707.4399999999999 519.04 707.2699999999999 519.12 707.0899999999999 C 519.58 706.04 520.01 704.9699999999999 520.44 703.8899999999999 C 520.7800000000001 703.0499999999998 521.09 702.1999999999998 521.4000000000001 701.3499999999999 C 521.6500000000001 700.6999999999999 521.8900000000001 700.0299999999999 522.1100000000001 699.3699999999999 C 522.2700000000001 698.9299999999998 522.4200000000001 698.4699999999999 522.5700000000002 698.0099999999999 C 522.6900000000002 697.6699999999998 522.7900000000002 697.3399999999999 522.9000000000002 696.9999999999999 C 523.0600000000002 696.5299999999999 523.2000000000002 696.0699999999999 523.3400000000003 695.5899999999999 L 523.3400000000003 695.5899999999999 C 523.7500000000002 694.2099999999999 524.1400000000002 692.8499999999999 524.5100000000002 691.4599999999999 C 524.8900000000002 690.04 525.2300000000002 688.6099999999999 525.5500000000002 687.16 C 525.7100000000002 686.48 525.8500000000001 685.78 525.9900000000002 685.0899999999999 C 526.8800000000002 680.6999999999999 527.5000000000002 676.2099999999999 527.8400000000003 671.66 C 527.9100000000003 670.7099999999999 527.9700000000003 669.77 528.0200000000002 668.8199999999999 C 528.0300000000002 668.51 528.0500000000002 668.1999999999999 528.0600000000002 667.8699999999999 C 528.1300000000002 666.2899999999998 528.1600000000002 664.6899999999999 528.1600000000002 663.0899999999999 L 528.1600000000002 663.0899999999999 C 528.1600000000002 632.3399999999999 515.7100000000002 604.53 495.57000000000016 584.3799999999999 Z M 416.89 716 C 387.69 716 364.02 692.33 364.02 663.13 L 364.02 663.13 C 364.02 650.48 368.46 638.89 375.84999999999997 629.79 C 385.53999999999996 617.87 400.31999999999994 610.25 416.88 610.25 C 431.48 610.25 444.69 616.17 454.26 625.74 C 463.83 635.3100000000001 469.75 648.52 469.75 663.12 L 469.75 663.12 C 469.75 692.33 446.08 716 416.88 716 Z" stroke-linecap="round" />
</g>
		<g transform="matrix(1 0 0 1 -205.19 -6.68)"  >
<path style="stroke: none; stroke-width: 1; stroke-dasharray: none; stroke-linecap: butt; stroke-dashoffset: 0; stroke-linejoin: miter; stroke-miterlimit: 4; fill: rgb(21,37,83); fill-rule: nonzero; opacity: 1;" vector-effect="non-scaling-stroke"  transform=" translate(-334.81, -533.32)" d="M 305.61 305.61 L 305.61 663.12 C 305.61 663.87 305.62 664.63 305.64 665.38 C 305.64 665.93 305.65 666.49 305.68 667.04 C 305.69 667.65 305.72 668.24 305.75 668.8399999999999 C 305.78 669.56 305.82 670.2699999999999 305.88 670.9799999999999 L 305.88 671.05 C 305.90999999999997 671.4799999999999 305.94 671.91 305.98 672.3399999999999 C 306.04 673.06 306.1 673.7699999999999 306.17 674.4799999999999 C 306.24 675.2499999999999 306.33000000000004 676.0199999999999 306.42 676.7699999999999 C 306.46000000000004 677.1099999999999 306.51 677.4499999999998 306.55 677.7899999999998 C 306.65000000000003 678.5399999999998 306.76 679.2999999999998 306.88 680.0499999999998 C 306.95 680.5999999999998 307.04 681.1599999999999 307.15 681.7099999999998 C 307.19 681.9799999999998 307.23999999999995 682.2299999999998 307.28 682.4799999999998 C 307.34999999999997 682.8899999999998 307.40999999999997 683.2899999999997 307.5 683.6899999999998 C 307.6 684.2699999999999 307.71 684.8299999999998 307.83 685.3899999999999 C 308.03999999999996 686.3799999999999 308.24 687.3699999999999 308.47999999999996 688.3499999999999 C 308.66999999999996 689.2099999999999 308.87999999999994 690.0699999999999 309.09999999999997 690.9099999999999 C 309.28999999999996 691.6799999999998 309.49999999999994 692.4499999999998 309.71999999999997 693.2199999999998 C 310.02 694.2999999999998 310.34 695.3599999999998 310.66999999999996 696.4299999999998 C 310.85999999999996 697.0499999999998 311.06999999999994 697.6699999999998 311.28 698.2799999999999 C 311.55999999999995 699.1199999999999 311.84 699.9499999999998 312.14 700.7799999999999 C 312.32 701.2699999999999 312.49 701.7399999999999 312.66999999999996 702.2099999999998 C 315.12999999999994 708.7499999999998 318.16999999999996 714.9999999999998 321.77 720.8899999999998 C 322.34999999999997 721.8199999999997 322.91999999999996 722.7499999999998 323.53 723.6699999999997 C 323.98999999999995 724.3899999999998 324.46 725.1199999999998 324.96 725.8299999999997 C 325.33 726.3899999999996 325.72999999999996 726.9499999999997 326.13 727.5199999999998 C 326.75 728.3899999999998 327.39 729.2699999999998 328.05 730.1399999999998 C 328.73 731.0399999999997 329.43 731.9399999999997 330.14 732.8199999999997 C 330.21 732.9099999999997 330.27 732.9999999999997 330.34999999999997 733.0899999999997 C 331.84 734.9199999999997 333.37999999999994 736.7099999999997 334.97999999999996 738.4399999999997 C 335.04999999999995 738.5099999999998 335.12999999999994 738.5999999999997 335.21999999999997 738.6899999999997 C 335.98999999999995 739.5299999999997 336.78999999999996 740.3599999999997 337.59999999999997 741.1899999999997 C 338.40999999999997 742.0199999999998 339.23999999999995 742.8499999999997 340.09999999999997 743.6599999999997 C 340.12999999999994 743.6899999999997 340.16999999999996 743.7199999999997 340.21999999999997 743.7599999999998 C 341.10999999999996 744.5999999999998 342.01 745.4299999999997 342.92999999999995 746.2499999999998 C 343.67999999999995 746.9299999999997 344.44999999999993 747.5999999999998 345.23999999999995 748.2499999999998 C 346.44999999999993 749.2699999999998 347.69999999999993 750.2799999999997 348.94999999999993 751.2499999999998 C 349.68999999999994 751.8299999999998 350.43999999999994 752.3899999999998 351.2099999999999 752.9499999999998 C 351.3999999999999 753.0799999999998 351.5899999999999 753.2299999999998 351.7999999999999 753.3599999999998 C 352.57999999999987 753.9399999999998 353.3799999999999 754.4999999999998 354.1999999999999 755.0499999999998 C 354.3599999999999 755.1699999999998 354.5099999999999 755.2699999999999 354.6699999999999 755.3799999999999 C 355.5699999999999 755.9999999999999 356.4899999999999 756.5899999999999 357.4199999999999 757.1799999999998 C 357.5999999999999 757.2799999999999 357.7699999999999 757.3999999999999 357.9499999999999 757.5099999999999 C 358.8799999999999 758.0999999999999 359.82999999999987 758.6799999999998 360.78999999999985 759.2299999999999 C 361.79999999999984 759.8199999999999 362.79999999999984 760.3999999999999 363.83999999999986 760.9599999999999 L 364.01999999999987 761.05 L 364.01999999999987 305.59999999999997 L 305.6099999999999 305.59999999999997 Z" stroke-linecap="round" />
</g>
		<g transform="matrix(1 0 0 1 -93.91 178.76)"  >
<path style="stroke: none; stroke-width: 1; stroke-dasharray: none; stroke-linecap: butt; stroke-dashoffset: 0; stroke-linejoin: miter; stroke-miterlimit: 4; fill: rgb(21,37,83); fill-rule: nonzero; opacity: 1;" vector-effect="non-scaling-stroke"  transform=" translate(-446.09, -718.76)" d="M 528.17 663.13 C 528.17 693.87 515.7199999999999 721.66 495.5799999999999 741.81 C 475.42999999999995 761.9399999999999 447.61999999999995 774.4 416.88999999999993 774.4 C 397.74999999999994 774.4 379.74999999999994 769.5799999999999 364.0199999999999 761.06 L 364.0199999999999 663.14 C 364.0199999999999 692.34 387.68999999999994 716.01 416.88999999999993 716.01 C 446.0899999999999 716.01 469.75999999999993 692.34 469.75999999999993 663.14 L 528.17 663.14 Z" stroke-linecap="round" />
</g>
		<g transform="matrix(1 0 0 1 -82.08 -123.11)"  >
<path style="stroke: none; stroke-width: 1; stroke-dasharray: none; stroke-linecap: butt; stroke-dashoffset: 0; stroke-linejoin: miter; stroke-miterlimit: 4; fill: rgb(255,203,5); fill-rule: nonzero; opacity: 1;" vector-effect="non-scaling-stroke"  transform=" translate(-457.92, -416.89)" d="M 528.16 416.89 L 528.16 416.89 C 528.16 478.34999999999997 478.34 528.17 416.88 528.17 L 387.68 528.17 L 387.68 469.77 L 416.87 469.77 C 446.07 469.77 469.74 446.09999999999997 469.74 416.9 L 469.74 416.9 C 469.74 387.7 446.07 364.03 416.87 364.03 L 387.68 364.03 L 387.68 305.62 L 416.88 305.62 C 478.34 305.62 528.16 355.44 528.16 416.9 Z" stroke-linecap="round" />
</g>
		<g transform="matrix(1 0 0 1 123.11 123.12)"  >
<path style="stroke: none; stroke-width: 1; stroke-dasharray: none; stroke-linecap: butt; stroke-dashoffset: 0; stroke-linejoin: miter; stroke-miterlimit: 4; fill: rgb(255,203,5); fill-rule: nonzero; opacity: 1;" vector-effect="non-scaling-stroke"  transform=" translate(-663.11, -663.12)" d="M 774.39 744.61 L 774.39 774.4 L 715.98 774.4 L 715.98 745.1999999999999 C 715.98 715.9999999999999 692.3100000000001 692.3299999999999 663.11 692.3299999999999 L 663.11 692.3299999999999 C 633.91 692.3299999999999 610.24 715.9999999999999 610.24 745.1999999999999 L 610.24 774.4 L 551.83 774.4 L 551.83 551.8399999999999 L 610.24 551.8399999999999 L 610.24 633.92 L 663.69 633.92 C 724.82 633.92 774.3800000000001 683.48 774.3800000000001 744.6099999999999 Z" stroke-linecap="round" />
</g>
		<g transform="matrix(1 0 0 1 123.11 -82.07)"  >
<path style="stroke: none; stroke-width: 1; stroke-dasharray: none; stroke-linecap: butt; stroke-dashoffset: 0; stroke-linejoin: miter; stroke-miterlimit: 4; fill: rgb(21,37,83); fill-rule: nonzero; opacity: 1;" vector-effect="non-scaling-stroke"  transform=" translate(-663.11, -457.93)" d="M 774.39 416.89 L 774.39 610.25 L 715.98 610.25 L 715.98 416.89 C 715.98 387.69 692.3100000000001 364.02 663.11 364.02 L 663.11 364.02 C 633.91 364.02 610.24 387.69 610.24 416.89 L 610.24 528.17 L 551.83 528.17 L 551.83 416.89 C 551.83 355.43 601.6500000000001 305.61 663.11 305.61 L 663.11 305.61 C 724.57 305.61 774.39 355.43 774.39 416.89 Z" stroke-linecap="round" />
</g>
		<g transform="matrix(1 0 0 1 -170.06 67.47)"  >
<linearGradient id="SVGID_New_Gradient_Swatch_1_3" gradientUnits="userSpaceOnUse" gradientTransform="matrix(1 0 0 1 0 0)"  x1="364.02" y1="607.47" x2="375.85" y2="607.47">
<stop offset="0%" style="stop-color:rgb(21,27,49);stop-opacity: 1"/>
<stop offset="100%" style="stop-color:rgb(21,37,83);stop-opacity: 1"/>
</linearGradient>
<path style="stroke: none; stroke-width: 1; stroke-dasharray: none; stroke-linecap: butt; stroke-dashoffset: 0; stroke-linejoin: miter; stroke-miterlimit: 4; fill: url(#SVGID_New_Gradient_Swatch_1_3); fill-rule: nonzero; opacity: 1;" vector-effect="non-scaling-stroke"  transform=" translate(-369.94, -607.47)" d="M 375.85 551.83 L 375.85 629.7800000000001 C 368.45000000000005 638.8800000000001 364.02000000000004 650.4700000000001 364.02000000000004 663.1100000000001 L 364.02000000000004 551.8300000000002 L 375.85 551.8300000000002 Z" stroke-linecap="round" />
</g>
</g>
</g>
</svg>